<svg xmlns="http://www.w3.org/2000/svg" xmlns:xlink="http://www.w3.org/1999/xlink" width="500" zoomAndPan="magnify" viewBox="0 0 375 374.999991" height="500" preserveAspectRatio="xMidYMid meet" version="1.2"><defs><clipPath id="d24c328e34"><path d="M 106.089844 181.066406 L 141.546875 181.066406 L 141.546875 198.332031 L 106.089844 198.332031 Z M 106.089844 181.066406 "/></clipPath><clipPath id="7eb684e2b7"><path d="M 101 185 L 128 185 L 128 209 L 101 209 Z M 101 185 "/></clipPath><clipPath id="96efbdc645"><path d="M 99.578125 185.679688 L 127.136719 182.421875 L 130.222656 208.492188 L 102.664062 211.75 Z M 99.578125 185.679688 "/></clipPath><clipPath id="01deff58d6"><path d="M 99.578125 185.679688 L 127.136719 182.421875 L 130.222656 208.492188 L 102.664062 211.75 Z M 99.578125 185.679688 "/></clipPath><clipPath id="86a8aec1f2"><path d="M 86 203 L 107 203 L 107 217 L 86 217 Z M 86 203 "/></clipPath><clipPath id="7cf703ab2f"><path d="M 84.296875 216.015625 L 92.742188 199.273438 L 108.8125 207.378906 L 100.367188 224.121094 Z M 84.296875 216.015625 "/></clipPath><clipPath id="184a37dc59"><path d="M 92.851562 199.054688 L 84.40625 215.792969 L 100.476562 223.902344 L 108.921875 207.160156 Z M 92.851562 199.054688 "/></clipPath></defs><g id="48e54669a0"><rect x="0" width="375" y="0" height="374.999991" style="fill:#ffffff;fill-opacity:1;stroke:none;"/><rect x="0" width="375" y="0" height="374.999991" style="fill:#ffffff;fill-opacity:1;stroke:none;"/><g style="fill:#3a6b3d;fill-opacity:1;"><g transform="translate(12.583723, 202.257649)"><path style="stroke:none" d="M 34.796875 -62.46875 C 40.453125 -62.46875 45.359375 -61.53125 49.515625 -59.65625 C 53.679688 -57.78125 56.894531 -55.101562 59.15625 -51.625 C 61.414062 -48.144531 62.546875 -44.054688 62.546875 -39.359375 C 62.546875 -34.648438 61.414062 -30.570312 59.15625 -27.125 C 56.894531 -23.675781 53.679688 -21.015625 49.515625 -19.140625 C 45.359375 -17.265625 40.453125 -16.328125 34.796875 -16.328125 L 23.921875 -16.328125 L 23.921875 0 L 6.25 0 L 6.25 -62.46875 Z M 33.734375 -30.25 C 37.359375 -30.25 40.09375 -31.035156 41.9375 -32.609375 C 43.78125 -34.191406 44.703125 -36.441406 44.703125 -39.359375 C 44.703125 -42.265625 43.78125 -44.519531 41.9375 -46.125 C 40.09375 -47.738281 37.359375 -48.546875 33.734375 -48.546875 L 23.921875 -48.546875 L 23.921875 -30.25 Z M 33.734375 -30.25 "/></g></g><g style="fill:#3a6b3d;fill-opacity:1;"><g transform="translate(70.759667, 202.257649)"><path style="stroke:none" d="M 5.4375 -66.21875 L 22.390625 -66.21875 L 22.390625 0 L 5.4375 0 Z M 5.4375 -66.21875 "/></g></g><g style="fill:#3a6b3d;fill-opacity:1;"><g transform="translate(91.103074, 202.257649)"><path style="stroke:none" d="M 26.0625 -49.171875 C 34.09375 -49.171875 40.21875 -47.335938 44.4375 -43.671875 C 48.664062 -40.015625 50.78125 -34.410156 50.78125 -26.859375 L 50.78125 0 L 34.984375 0 L 34.984375 -6.25 C 32.546875 -1.550781 27.785156 0.796875 20.703125 0.796875 C 16.953125 0.796875 13.707031 0.144531 10.96875 -1.15625 C 8.238281 -2.46875 6.171875 -4.238281 4.765625 -6.46875 C 3.367188 -8.695312 2.671875 -11.238281 2.671875 -14.09375 C 2.671875 -18.675781 4.425781 -22.234375 7.9375 -24.765625 C 11.445312 -27.296875 16.863281 -28.5625 24.1875 -28.5625 L 33.8125 -28.5625 C 33.519531 -33.675781 30.101562 -36.234375 23.5625 -36.234375 C 21.238281 -36.234375 18.882812 -35.859375 16.5 -35.109375 C 14.125 -34.367188 12.101562 -33.34375 10.4375 -32.03125 L 4.734375 -43.546875 C 7.410156 -45.328125 10.664062 -46.707031 14.5 -47.6875 C 18.332031 -48.675781 22.1875 -49.171875 26.0625 -49.171875 Z M 25.4375 -9.90625 C 27.394531 -9.90625 29.117188 -10.378906 30.609375 -11.328125 C 32.097656 -12.285156 33.164062 -13.6875 33.8125 -15.53125 L 33.8125 -19.71875 L 26.5 -19.71875 C 21.5625 -19.71875 19.09375 -18.082031 19.09375 -14.8125 C 19.09375 -13.320312 19.65625 -12.128906 20.78125 -11.234375 C 21.914062 -10.347656 23.46875 -9.90625 25.4375 -9.90625 Z M 25.4375 -9.90625 "/></g></g><g style="fill:#3a6b3d;fill-opacity:1;"><g transform="translate(139.5532, 202.257649)"><path style="stroke:none" d="M 36.9375 -49.171875 C 42.945312 -49.171875 47.78125 -47.382812 51.4375 -43.8125 C 55.101562 -40.238281 56.9375 -34.851562 56.9375 -27.65625 L 56.9375 0 L 39.984375 0 L 39.984375 -24.890625 C 39.984375 -31.492188 37.332031 -34.796875 32.03125 -34.796875 C 29.113281 -34.796875 26.773438 -33.84375 25.015625 -31.9375 C 23.265625 -30.039062 22.390625 -27.1875 22.390625 -23.375 L 22.390625 0 L 5.4375 0 L 5.4375 -48.359375 L 21.59375 -48.359375 L 21.59375 -43.09375 C 23.5 -45.0625 25.757812 -46.566406 28.375 -47.609375 C 30.988281 -48.648438 33.84375 -49.171875 36.9375 -49.171875 Z M 36.9375 -49.171875 "/></g></g><g style="fill:#3a6b3d;fill-opacity:1;"><g transform="translate(194.070822, 202.257649)"><path style="stroke:none" d="M 38.8125 -1.96875 C 37.382812 -1.070312 35.644531 -0.390625 33.59375 0.078125 C 31.539062 0.554688 29.351562 0.796875 27.03125 0.796875 C 20.726562 0.796875 15.878906 -0.75 12.484375 -3.84375 C 9.097656 -6.9375 7.40625 -11.546875 7.40625 -17.671875 L 7.40625 -33.90625 L 0.359375 -33.90625 L 0.359375 -46.578125 L 7.40625 -46.578125 L 7.40625 -59.15625 L 24.359375 -59.15625 L 24.359375 -46.578125 L 35.421875 -46.578125 L 35.421875 -33.90625 L 24.359375 -33.90625 L 24.359375 -17.84375 C 24.359375 -16.125 24.816406 -14.769531 25.734375 -13.78125 C 26.660156 -12.800781 27.898438 -12.3125 29.453125 -12.3125 C 31.410156 -12.3125 33.132812 -12.816406 34.625 -13.828125 Z M 38.8125 -1.96875 "/></g></g><g style="fill:#3a6b3d;fill-opacity:1;"><g transform="translate(226.37072, 202.257649)"><path style="stroke:none" d="M 34.796875 -62.46875 C 40.453125 -62.46875 45.359375 -61.53125 49.515625 -59.65625 C 53.679688 -57.78125 56.894531 -55.101562 59.15625 -51.625 C 61.414062 -48.144531 62.546875 -44.054688 62.546875 -39.359375 C 62.546875 -34.648438 61.414062 -30.570312 59.15625 -27.125 C 56.894531 -23.675781 53.679688 -21.015625 49.515625 -19.140625 C 45.359375 -17.265625 40.453125 -16.328125 34.796875 -16.328125 L 23.921875 -16.328125 L 23.921875 0 L 6.25 0 L 6.25 -62.46875 Z M 33.734375 -30.25 C 37.359375 -30.25 40.09375 -31.035156 41.9375 -32.609375 C 43.78125 -34.191406 44.703125 -36.441406 44.703125 -39.359375 C 44.703125 -42.265625 43.78125 -44.519531 41.9375 -46.125 C 40.09375 -47.738281 37.359375 -48.546875 33.734375 -48.546875 L 23.921875 -48.546875 L 23.921875 -30.25 Z M 33.734375 -30.25 "/></g></g><g style="fill:#3a6b3d;fill-opacity:1;"><g transform="translate(284.546674, 202.257649)"><path style="stroke:none" d="M 26.0625 -49.171875 C 34.09375 -49.171875 40.21875 -47.335938 44.4375 -43.671875 C 48.664062 -40.015625 50.78125 -34.410156 50.78125 -26.859375 L 50.78125 0 L 34.984375 0 L 34.984375 -6.25 C 32.546875 -1.550781 27.785156 0.796875 20.703125 0.796875 C 16.953125 0.796875 13.707031 0.144531 10.96875 -1.15625 C 8.238281 -2.46875 6.171875 -4.238281 4.765625 -6.46875 C 3.367188 -8.695312 2.671875 -11.238281 2.671875 -14.09375 C 2.671875 -18.675781 4.425781 -22.234375 7.9375 -24.765625 C 11.445312 -27.296875 16.863281 -28.5625 24.1875 -28.5625 L 33.8125 -28.5625 C 33.519531 -33.675781 30.101562 -36.234375 23.5625 -36.234375 C 21.238281 -36.234375 18.882812 -35.859375 16.5 -35.109375 C 14.125 -34.367188 12.101562 -33.34375 10.4375 -32.03125 L 4.734375 -43.546875 C 7.410156 -45.328125 10.664062 -46.707031 14.5 -47.6875 C 18.332031 -48.675781 22.1875 -49.171875 26.0625 -49.171875 Z M 25.4375 -9.90625 C 27.394531 -9.90625 29.117188 -10.378906 30.609375 -11.328125 C 32.097656 -12.285156 33.164062 -13.6875 33.8125 -15.53125 L 33.8125 -19.71875 L 26.5 -19.71875 C 21.5625 -19.71875 19.09375 -18.082031 19.09375 -14.8125 C 19.09375 -13.320312 19.65625 -12.128906 20.78125 -11.234375 C 21.914062 -10.347656 23.46875 -9.90625 25.4375 -9.90625 Z M 25.4375 -9.90625 "/></g></g><g style="fill:#3a6b3d;fill-opacity:1;"><g transform="translate(332.9968, 202.257649)"><path style="stroke:none" d="M 5.4375 -66.21875 L 22.390625 -66.21875 L 22.390625 0 L 5.4375 0 Z M 5.4375 -66.21875 "/></g></g><g clip-rule="nonzero" clip-path="url(#d24c328e34)"><path style=" stroke:none;fill-rule:nonzero;fill:#3a6b3d;fill-opacity:1;" d="M 106.089844 181.066406 L 141.566406 181.066406 L 141.566406 198.332031 L 106.089844 198.332031 Z M 106.089844 181.066406 "/></g><g clip-rule="nonzero" clip-path="url(#7eb684e2b7)"><g clip-rule="nonzero" clip-path="url(#96efbdc645)"><g clip-rule="nonzero" clip-path="url(#01deff58d6)"><path style=" stroke:none;fill-rule:evenodd;fill:#ffffff;fill-opacity:1;" d="M 121.359375 187.789062 C 108.464844 189.253906 102.257812 196.089844 103.136719 208.617188 C 103.148438 208.773438 102.921875 208.808594 102.878906 208.65625 C 101.824219 204.65625 101.496094 200.933594 102.148438 197.585938 C 104.300781 186.542969 117.136719 183.609375 126.761719 185.886719 C 127.242188 186 127.40625 186.582031 127.058594 186.933594 C 120.542969 193.539062 123.378906 209.128906 105.058594 204.394531 C 106.789062 195.566406 111.773438 189.636719 121.359375 187.789062 "/></g></g></g><g clip-rule="nonzero" clip-path="url(#86a8aec1f2)"><g clip-rule="nonzero" clip-path="url(#7cf703ab2f)"><g clip-rule="nonzero" clip-path="url(#184a37dc59)"><path style=" stroke:none;fill-rule:evenodd;fill:#3a6b3d;fill-opacity:1;" d="M 89.121094 213.480469 C 93.066406 205.570312 98.886719 203.195312 106.699219 206.679688 C 106.796875 206.722656 106.875 206.585938 106.785156 206.523438 C 104.472656 204.914062 102.164062 203.835938 99.871094 203.472656 C 92.300781 202.273438 87.429688 209.804688 86.640625 216.496094 C 86.601562 216.832031 86.9375 217.070312 87.242188 216.929688 C 92.988281 214.300781 102.304688 219.753906 103.550781 206.921875 C 97.496094 205.972656 92.539062 207.777344 89.121094 213.480469 "/></g></g></g></g></svg>